<?xml version="1.0" encoding="UTF-8" standalone="no"?>
<!DOCTYPE svg PUBLIC "-//W3C//DTD SVG 1.1//EN"
 "http://www.w3.org/Graphics/SVG/1.1/DTD/svg11.dtd">
<!-- Generated by graphviz version 2.28.0 (20130109.1152)
 -->
<!-- Title: G Pages: 1 -->
<svg width="1788pt" height="1483pt"
 viewBox="0.00 0.00 1788.00 1483.00" xmlns="http://www.w3.org/2000/svg" xmlns:xlink="http://www.w3.org/1999/xlink">
<g id="graph1" class="graph" transform="scale(1 1) rotate(0) translate(4 1479)">
<title>G</title>
<polygon fill="white" stroke="white" points="-4,5 -4,-1479 1785,-1479 1785,5 -4,5"/>
<!-- defined [gn_liteon_ltr558_auto/gn_ltr558.c:1735] -->
<g id="node1" class="node"><title>defined [gn_liteon_ltr558_auto/gn_ltr558.c:1735]</title>
<ellipse fill="lightgrey" stroke="black" cx="403" cy="-1436" rx="186.567" ry="18"/>
<text text-anchor="middle" x="403" y="-1432.3" font-family="Times,serif" font-size="14.00">defined [gn_liteon_ltr558_auto/gn_ltr558.c:1735]</text>
</g>
<!-- defined [gn_liteon_ltr558_auto/gn_ltr558.c:1735] .... -->
<g id="node3" class="node"><title>defined [gn_liteon_ltr558_auto/gn_ltr558.c:1735] ....</title>
<ellipse fill="lightgrey" stroke="black" cx="884" cy="-1457" rx="198.465" ry="18"/>
<text text-anchor="middle" x="884" y="-1453.3" font-family="Times,serif" font-size="14.00">defined [gn_liteon_ltr558_auto/gn_ltr558.c:1735] ....</text>
</g>
<!-- defined [gn_liteon_ltr558_auto/gn_ltr558.c:1735]&#45;&gt;defined [gn_liteon_ltr558_auto/gn_ltr558.c:1735] .... -->
<g id="edge2" class="edge"><title>defined [gn_liteon_ltr558_auto/gn_ltr558.c:1735]&#45;&gt;defined [gn_liteon_ltr558_auto/gn_ltr558.c:1735] ....</title>
<path fill="none" stroke="black" d="M573.214,-1443.42C612.555,-1445.14 654.671,-1446.99 694.775,-1448.75"/>
<polygon fill="black" stroke="black" points="694.781,-1452.25 704.925,-1449.19 695.088,-1445.26 694.781,-1452.25"/>
</g>
<!-- ltr558_als_enable [gn_liteon_ltr558_auto/gn_ltr558.c:565] -->
<g id="node4" class="node"><title>ltr558_als_enable [gn_liteon_ltr558_auto/gn_ltr558.c:565]</title>
<ellipse fill="lightgrey" stroke="black" cx="1360" cy="-1285" rx="217.962" ry="18"/>
<text text-anchor="middle" x="1360" y="-1281.3" font-family="Times,serif" font-size="14.00">ltr558_als_enable [gn_liteon_ltr558_auto/gn_ltr558.c:565]</text>
</g>
<!-- hwmsen_write_byte -->
<g id="node6" class="node"><title>hwmsen_write_byte</title>
<ellipse fill="lightgrey" stroke="black" cx="1697" cy="-1285" rx="82.5854" ry="18"/>
<text text-anchor="middle" x="1697" y="-1281.3" font-family="Times,serif" font-size="14.00">hwmsen_write_byte</text>
</g>
<!-- ltr558_als_enable [gn_liteon_ltr558_auto/gn_ltr558.c:565]&#45;&gt;hwmsen_write_byte -->
<g id="edge4" class="edge"><title>ltr558_als_enable [gn_liteon_ltr558_auto/gn_ltr558.c:565]&#45;&gt;hwmsen_write_byte</title>
<path fill="none" stroke="black" d="M1577.89,-1285C1586.92,-1285 1595.75,-1285 1604.24,-1285"/>
<polygon fill="black" stroke="black" points="1604.43,-1288.5 1614.43,-1285 1604.43,-1281.5 1604.43,-1288.5"/>
</g>
<!-- mdelay -->
<g id="node8" class="node"><title>mdelay</title>
<ellipse fill="lightgrey" stroke="black" cx="1697" cy="-1231" rx="37.0935" ry="18"/>
<text text-anchor="middle" x="1697" y="-1227.3" font-family="Times,serif" font-size="14.00">mdelay</text>
</g>
<!-- ltr558_als_enable [gn_liteon_ltr558_auto/gn_ltr558.c:565]&#45;&gt;mdelay -->
<g id="edge6" class="edge"><title>ltr558_als_enable [gn_liteon_ltr558_auto/gn_ltr558.c:565]&#45;&gt;mdelay</title>
<path fill="none" stroke="black" d="M1493,-1270.74C1521.13,-1267.1 1550.61,-1262.82 1578,-1258 1603.4,-1253.53 1631.56,-1247.14 1654,-1241.7"/>
<polygon fill="black" stroke="black" points="1655,-1245.06 1663.88,-1239.28 1653.33,-1238.26 1655,-1245.06"/>
</g>
<!-- ltr558_create_attr [gn_liteon_ltr558_auto/gn_ltr558.c:1491] -->
<g id="node9" class="node"><title>ltr558_create_attr [gn_liteon_ltr558_auto/gn_ltr558.c:1491]</title>
<ellipse fill="lightgrey" stroke="black" cx="403" cy="-1361" rx="222.061" ry="18"/>
<text text-anchor="middle" x="403" y="-1357.3" font-family="Times,serif" font-size="14.00">ltr558_create_attr [gn_liteon_ltr558_auto/gn_ltr558.c:1491]</text>
</g>
<!-- APS_ERR [gn_liteon_ltr558_auto/gn_ltr558.c:114] -->
<g id="node11" class="node"><title>APS_ERR [gn_liteon_ltr558_auto/gn_ltr558.c:114]</title>
<ellipse fill="lightgrey" stroke="black" cx="1360" cy="-1377" rx="193.066" ry="18"/>
<text text-anchor="middle" x="1360" y="-1373.3" font-family="Times,serif" font-size="14.00">APS_ERR [gn_liteon_ltr558_auto/gn_ltr558.c:114]</text>
</g>
<!-- ltr558_create_attr [gn_liteon_ltr558_auto/gn_ltr558.c:1491]&#45;&gt;APS_ERR [gn_liteon_ltr558_auto/gn_ltr558.c:114] -->
<g id="edge8" class="edge"><title>ltr558_create_attr [gn_liteon_ltr558_auto/gn_ltr558.c:1491]&#45;&gt;APS_ERR [gn_liteon_ltr558_auto/gn_ltr558.c:114]</title>
<path fill="none" stroke="black" d="M621.003,-1364.64C782.835,-1367.35 1002.2,-1371.02 1159.63,-1373.66"/>
<polygon fill="black" stroke="black" points="1159.85,-1377.16 1169.91,-1373.83 1159.97,-1370.16 1159.85,-1377.16"/>
</g>
<!-- driver_create_file -->
<g id="node13" class="node"><title>driver_create_file</title>
<ellipse fill="lightgrey" stroke="black" cx="884" cy="-1403" rx="73.387" ry="18"/>
<text text-anchor="middle" x="884" y="-1399.3" font-family="Times,serif" font-size="14.00">driver_create_file</text>
</g>
<!-- ltr558_create_attr [gn_liteon_ltr558_auto/gn_ltr558.c:1491]&#45;&gt;driver_create_file -->
<g id="edge10" class="edge"><title>ltr558_create_attr [gn_liteon_ltr558_auto/gn_ltr558.c:1491]&#45;&gt;driver_create_file</title>
<path fill="none" stroke="black" d="M554.573,-1374.2C637.409,-1381.47 736.788,-1390.18 804.376,-1396.11"/>
<polygon fill="black" stroke="black" points="804.259,-1399.61 814.526,-1397 804.87,-1392.64 804.259,-1399.61"/>
</g>
<!-- ltr558_i2c_probe -->
<g id="node14" class="node"><title>ltr558_i2c_probe</title>
<ellipse fill="lightgrey" stroke="black" cx="72" cy="-531" rx="71.4873" ry="18"/>
<text text-anchor="middle" x="72" y="-527.3" font-family="Times,serif" font-size="14.00">ltr558_i2c_probe</text>
</g>
<!-- ltr558_i2c_probe&#45;&gt;defined [gn_liteon_ltr558_auto/gn_ltr558.c:1735] -->
<g id="edge22" class="edge"><title>ltr558_i2c_probe&#45;&gt;defined [gn_liteon_ltr558_auto/gn_ltr558.c:1735]</title>
<path fill="none" stroke="black" d="M74.03,-549.33C80.8551,-667.905 121.104,-1323.63 180,-1388 194.592,-1403.95 213.114,-1415.27 233.214,-1423.21"/>
<polygon fill="black" stroke="black" points="232.28,-1426.59 242.873,-1426.73 234.679,-1420.02 232.28,-1426.59"/>
</g>
<!-- ltr558_i2c_probe&#45;&gt;ltr558_create_attr [gn_liteon_ltr558_auto/gn_ltr558.c:1491] -->
<g id="edge38" class="edge"><title>ltr558_i2c_probe&#45;&gt;ltr558_create_attr [gn_liteon_ltr558_auto/gn_ltr558.c:1491]</title>
<path fill="none" stroke="black" d="M74.1409,-549.207C81.4263,-662.81 122.956,-1271.39 180,-1329 186.914,-1335.98 194.622,-1341.9 202.9,-1346.89"/>
<polygon fill="black" stroke="black" points="201.278,-1350 211.724,-1351.77 204.664,-1343.87 201.278,-1350"/>
</g>
<!-- ltr558_i2c_probe&#45;&gt;APS_ERR [gn_liteon_ltr558_auto/gn_ltr558.c:114] -->
<g id="edge12" class="edge"><title>ltr558_i2c_probe&#45;&gt;APS_ERR [gn_liteon_ltr558_auto/gn_ltr558.c:114]</title>
<path fill="none" stroke="black" d="M73.7202,-549.053C76.8991,-608.746 93.6989,-803.217 180,-931 329.946,-1153.02 413.405,-1193.12 662,-1293 754.359,-1330.11 1012.58,-1354.06 1187.43,-1366.54"/>
<polygon fill="black" stroke="black" points="1187.29,-1370.03 1197.52,-1367.25 1187.79,-1363.05 1187.29,-1370.03"/>
</g>
<!-- APS_FUN [gn_liteon_ltr558_auto/gn_ltr558.c:113] -->
<g id="node17" class="node"><title>APS_FUN [gn_liteon_ltr558_auto/gn_ltr558.c:113]</title>
<ellipse fill="lightgrey" stroke="black" cx="1360" cy="-599" rx="193.866" ry="18"/>
<text text-anchor="middle" x="1360" y="-595.3" font-family="Times,serif" font-size="14.00">APS_FUN [gn_liteon_ltr558_auto/gn_ltr558.c:113]</text>
</g>
<!-- ltr558_i2c_probe&#45;&gt;APS_FUN [gn_liteon_ltr558_auto/gn_ltr558.c:113] -->
<g id="edge14" class="edge"><title>ltr558_i2c_probe&#45;&gt;APS_FUN [gn_liteon_ltr558_auto/gn_ltr558.c:113]</title>
<path fill="none" stroke="black" d="M73.7028,-549.335C76.753,-599.977 93.0402,-741.922 180,-801 343.963,-912.391 430.421,-833.263 626,-801 864.934,-761.586 905.961,-680.118 1142,-626 1164.58,-620.822 1188.73,-616.578 1212.42,-613.118"/>
<polygon fill="black" stroke="black" points="1213.12,-616.553 1222.53,-611.682 1212.14,-609.622 1213.12,-616.553"/>
</g>
<!-- APS_LOG [gn_liteon_ltr558_auto/gn_ltr558.c:121] -->
<g id="node19" class="node"><title>APS_LOG [gn_liteon_ltr558_auto/gn_ltr558.c:121]</title>
<ellipse fill="lightgrey" stroke="black" cx="403" cy="-774" rx="194.166" ry="18"/>
<text text-anchor="middle" x="403" y="-770.3" font-family="Times,serif" font-size="14.00">APS_LOG [gn_liteon_ltr558_auto/gn_ltr558.c:121]</text>
</g>
<!-- ltr558_i2c_probe&#45;&gt;APS_LOG [gn_liteon_ltr558_auto/gn_ltr558.c:121] -->
<g id="edge16" class="edge"><title>ltr558_i2c_probe&#45;&gt;APS_LOG [gn_liteon_ltr558_auto/gn_ltr558.c:121]</title>
<path fill="none" stroke="black" d="M76.0639,-549.259C84.2704,-591.911 111,-698.162 180,-747 189.718,-753.878 200.292,-759.496 211.38,-764.057"/>
<polygon fill="black" stroke="black" points="210.215,-767.358 220.806,-767.643 212.704,-760.816 210.215,-767.358"/>
</g>
<!-- atomic_set -->
<g id="node21" class="node"><title>atomic_set</title>
<ellipse fill="lightgrey" stroke="black" cx="403" cy="-720" rx="49.2915" ry="18"/>
<text text-anchor="middle" x="403" y="-716.3" font-family="Times,serif" font-size="14.00">atomic_set</text>
</g>
<!-- ltr558_i2c_probe&#45;&gt;atomic_set -->
<g id="edge18" class="edge"><title>ltr558_i2c_probe&#45;&gt;atomic_set</title>
<path fill="none" stroke="black" d="M79.1012,-549.117C91.7863,-583.69 124.536,-658.685 180,-693 229.678,-723.735 297.647,-727.669 345.246,-725.688"/>
<polygon fill="black" stroke="black" points="345.573,-729.176 355.379,-725.165 345.212,-722.186 345.573,-729.176"/>
</g>
<!-- BUG_ON -->
<g id="node23" class="node"><title>BUG_ON</title>
<ellipse fill="lightgrey" stroke="black" cx="403" cy="-666" rx="46.2923" ry="18"/>
<text text-anchor="middle" x="403" y="-662.3" font-family="Times,serif" font-size="14.00">BUG_ON</text>
</g>
<!-- ltr558_i2c_probe&#45;&gt;BUG_ON -->
<g id="edge20" class="edge"><title>ltr558_i2c_probe&#45;&gt;BUG_ON</title>
<path fill="none" stroke="black" d="M84.7023,-548.793C102.164,-573.694 137.573,-618.215 180,-639 232.674,-664.805 300.492,-669.556 347.236,-669.116"/>
<polygon fill="black" stroke="black" points="347.528,-672.611 357.464,-668.934 347.403,-665.613 347.528,-672.611"/>
</g>
<!-- get_cust_alsps_hw_ltr558 -->
<g id="node26" class="node"><title>get_cust_alsps_hw_ltr558</title>
<ellipse fill="lightgrey" stroke="black" cx="403" cy="-612" rx="102.882" ry="18"/>
<text text-anchor="middle" x="403" y="-608.3" font-family="Times,serif" font-size="14.00">get_cust_alsps_hw_ltr558</text>
</g>
<!-- ltr558_i2c_probe&#45;&gt;get_cust_alsps_hw_ltr558 -->
<g id="edge24" class="edge"><title>ltr558_i2c_probe&#45;&gt;get_cust_alsps_hw_ltr558</title>
<path fill="none" stroke="black" d="M99.6185,-547.718C120.632,-560.089 151.125,-576.251 180,-585 216.087,-595.934 256.744,-602.458 293.31,-606.344"/>
<polygon fill="black" stroke="black" points="293.207,-609.852 303.508,-607.372 293.909,-602.887 293.207,-609.852"/>
</g>
<!-- hwmsen_attach -->
<g id="node28" class="node"><title>hwmsen_attach</title>
<ellipse fill="lightgrey" stroke="black" cx="403" cy="-558" rx="65.7887" ry="18"/>
<text text-anchor="middle" x="403" y="-554.3" font-family="Times,serif" font-size="14.00">hwmsen_attach</text>
</g>
<!-- ltr558_i2c_probe&#45;&gt;hwmsen_attach -->
<g id="edge26" class="edge"><title>ltr558_i2c_probe&#45;&gt;hwmsen_attach</title>
<path fill="none" stroke="black" d="M140.372,-536.529C195.501,-541.053 273.305,-547.438 329.725,-552.069"/>
<polygon fill="black" stroke="black" points="329.748,-555.582 340.001,-552.912 330.32,-548.606 329.748,-555.582"/>
</g>
<!-- i2c_detach_client -->
<g id="node30" class="node"><title>i2c_detach_client</title>
<ellipse fill="lightgrey" stroke="black" cx="403" cy="-504" rx="72.5877" ry="18"/>
<text text-anchor="middle" x="403" y="-500.3" font-family="Times,serif" font-size="14.00">i2c_detach_client</text>
</g>
<!-- ltr558_i2c_probe&#45;&gt;i2c_detach_client -->
<g id="edge28" class="edge"><title>ltr558_i2c_probe&#45;&gt;i2c_detach_client</title>
<path fill="none" stroke="black" d="M140.372,-525.471C193.466,-521.114 267.591,-515.031 323.391,-510.451"/>
<polygon fill="black" stroke="black" points="323.907,-513.921 333.588,-509.614 323.335,-506.944 323.907,-513.921"/>
</g>
<!-- i2c_set_clientdata -->
<g id="node32" class="node"><title>i2c_set_clientdata</title>
<ellipse fill="lightgrey" stroke="black" cx="403" cy="-450" rx="74.187" ry="18"/>
<text text-anchor="middle" x="403" y="-446.3" font-family="Times,serif" font-size="14.00">i2c_set_clientdata</text>
</g>
<!-- ltr558_i2c_probe&#45;&gt;i2c_set_clientdata -->
<g id="edge30" class="edge"><title>ltr558_i2c_probe&#45;&gt;i2c_set_clientdata</title>
<path fill="none" stroke="black" d="M99.6185,-514.282C120.632,-501.911 151.125,-485.749 180,-477 224.978,-463.372 277.054,-456.595 319.461,-453.237"/>
<polygon fill="black" stroke="black" points="319.752,-456.725 329.465,-452.494 319.233,-449.745 319.752,-456.725"/>
</g>
<!-- INIT_DELAYED_WORK -->
<g id="node34" class="node"><title>INIT_DELAYED_WORK</title>
<ellipse fill="lightgrey" stroke="black" cx="403" cy="-396" rx="105.881" ry="18"/>
<text text-anchor="middle" x="403" y="-392.3" font-family="Times,serif" font-size="14.00">INIT_DELAYED_WORK</text>
</g>
<!-- ltr558_i2c_probe&#45;&gt;INIT_DELAYED_WORK -->
<g id="edge32" class="edge"><title>ltr558_i2c_probe&#45;&gt;INIT_DELAYED_WORK</title>
<path fill="none" stroke="black" d="M84.7023,-513.207C102.164,-488.306 137.573,-443.785 180,-423 212.826,-406.918 251.534,-399.013 287.357,-395.446"/>
<polygon fill="black" stroke="black" points="287.728,-398.927 297.377,-394.552 287.105,-391.955 287.728,-398.927"/>
</g>
<!-- kfree -->
<g id="node36" class="node"><title>kfree</title>
<ellipse fill="lightgrey" stroke="black" cx="403" cy="-342" rx="28.6953" ry="18"/>
<text text-anchor="middle" x="403" y="-338.3" font-family="Times,serif" font-size="14.00">kfree</text>
</g>
<!-- ltr558_i2c_probe&#45;&gt;kfree -->
<g id="edge34" class="edge"><title>ltr558_i2c_probe&#45;&gt;kfree</title>
<path fill="none" stroke="black" d="M79.1012,-512.883C91.7863,-478.31 124.536,-403.315 180,-369 236.941,-333.771 317.912,-333.754 364.696,-337.494"/>
<polygon fill="black" stroke="black" points="364.425,-340.984 374.699,-338.394 365.052,-334.012 364.425,-340.984"/>
</g>
<!-- kzalloc -->
<g id="node38" class="node"><title>kzalloc</title>
<ellipse fill="lightgrey" stroke="black" cx="403" cy="-288" rx="36.2938" ry="18"/>
<text text-anchor="middle" x="403" y="-284.3" font-family="Times,serif" font-size="14.00">kzalloc</text>
</g>
<!-- ltr558_i2c_probe&#45;&gt;kzalloc -->
<g id="edge36" class="edge"><title>ltr558_i2c_probe&#45;&gt;kzalloc</title>
<path fill="none" stroke="black" d="M76.0639,-512.741C84.2704,-470.089 111,-363.838 180,-315 232.406,-277.907 309.74,-277.469 357.931,-281.808"/>
<polygon fill="black" stroke="black" points="357.746,-285.308 368.046,-282.828 358.448,-278.343 357.746,-285.308"/>
</g>
<!-- ltr558_init_client [gn_liteon_ltr558_auto/gn_ltr558.c:1058] -->
<g id="node41" class="node"><title>ltr558_init_client [gn_liteon_ltr558_auto/gn_ltr558.c:1058]</title>
<ellipse fill="lightgrey" stroke="black" cx="403" cy="-904" rx="220.961" ry="18"/>
<text text-anchor="middle" x="403" y="-900.3" font-family="Times,serif" font-size="14.00">ltr558_init_client [gn_liteon_ltr558_auto/gn_ltr558.c:1058]</text>
</g>
<!-- ltr558_i2c_probe&#45;&gt;ltr558_init_client [gn_liteon_ltr558_auto/gn_ltr558.c:1058] -->
<g id="edge40" class="edge"><title>ltr558_i2c_probe&#45;&gt;ltr558_init_client [gn_liteon_ltr558_auto/gn_ltr558.c:1058]</title>
<path fill="none" stroke="black" d="M73.9904,-549.319C77.8117,-601.569 95.9629,-752.774 180,-834 206.295,-859.415 241.739,-875.609 276.579,-885.926"/>
<polygon fill="black" stroke="black" points="275.808,-889.344 286.382,-888.682 277.703,-882.606 275.808,-889.344"/>
</g>
<!-- memcpy -->
<g id="node43" class="node"><title>memcpy</title>
<ellipse fill="lightgrey" stroke="black" cx="403" cy="-234" rx="42.4939" ry="18"/>
<text text-anchor="middle" x="403" y="-230.3" font-family="Times,serif" font-size="14.00">memcpy</text>
</g>
<!-- ltr558_i2c_probe&#45;&gt;memcpy -->
<g id="edge42" class="edge"><title>ltr558_i2c_probe&#45;&gt;memcpy</title>
<path fill="none" stroke="black" d="M74.1176,-512.841C78.2277,-463.27 96.9718,-325.074 180,-261 229.357,-222.91 304.141,-221.981 353.034,-226.581"/>
<polygon fill="black" stroke="black" points="352.745,-230.07 363.056,-227.635 353.477,-223.108 352.745,-230.07"/>
</g>
<!-- memset -->
<g id="node45" class="node"><title>memset</title>
<ellipse fill="lightgrey" stroke="black" cx="403" cy="-180" rx="38.9931" ry="18"/>
<text text-anchor="middle" x="403" y="-176.3" font-family="Times,serif" font-size="14.00">memset</text>
</g>
<!-- ltr558_i2c_probe&#45;&gt;memset -->
<g id="edge44" class="edge"><title>ltr558_i2c_probe&#45;&gt;memset</title>
<path fill="none" stroke="black" d="M72.7871,-512.63C73.2279,-456.556 82.8583,-286.593 180,-207 229.487,-166.453 307.244,-166.917 356.375,-172.397"/>
<polygon fill="black" stroke="black" points="356.052,-175.883 366.405,-173.629 356.906,-168.935 356.052,-175.883"/>
</g>
<!-- misc_deregister -->
<g id="node47" class="node"><title>misc_deregister</title>
<ellipse fill="lightgrey" stroke="black" cx="403" cy="-126" rx="66.8882" ry="18"/>
<text text-anchor="middle" x="403" y="-122.3" font-family="Times,serif" font-size="14.00">misc_deregister</text>
</g>
<!-- ltr558_i2c_probe&#45;&gt;misc_deregister -->
<g id="edge46" class="edge"><title>ltr558_i2c_probe&#45;&gt;misc_deregister</title>
<path fill="none" stroke="black" d="M75.5039,-512.638C85.2947,-443.669 123.265,-201.567 180,-153 222.13,-116.935 286.361,-112.71 334.913,-116.022"/>
<polygon fill="black" stroke="black" points="334.773,-119.522 345.022,-116.835 335.334,-112.545 334.773,-119.522"/>
</g>
<!-- misc_register -->
<g id="node49" class="node"><title>misc_register</title>
<ellipse fill="lightgrey" stroke="black" cx="403" cy="-72" rx="58.4896" ry="18"/>
<text text-anchor="middle" x="403" y="-68.3" font-family="Times,serif" font-size="14.00">misc_register</text>
</g>
<!-- ltr558_i2c_probe&#45;&gt;misc_register -->
<g id="edge48" class="edge"><title>ltr558_i2c_probe&#45;&gt;misc_register</title>
<path fill="none" stroke="black" d="M74.7885,-512.92C82.5502,-438.332 115.849,-155.779 180,-99 223.564,-60.442 292.188,-57.7713 341.61,-62.1868"/>
<polygon fill="black" stroke="black" points="341.546,-65.6982 351.848,-63.2262 342.253,-58.734 341.546,-65.6982"/>
</g>
<!-- register_early_suspend -->
<g id="node51" class="node"><title>register_early_suspend</title>
<ellipse fill="lightgrey" stroke="black" cx="403" cy="-18" rx="91.784" ry="18"/>
<text text-anchor="middle" x="403" y="-14.3" font-family="Times,serif" font-size="14.00">register_early_suspend</text>
</g>
<!-- ltr558_i2c_probe&#45;&gt;register_early_suspend -->
<g id="edge50" class="edge"><title>ltr558_i2c_probe&#45;&gt;register_early_suspend</title>
<path fill="none" stroke="black" d="M74.2606,-512.899C80.2372,-432.64 108.464,-109.999 180,-45 217.212,-11.1886 273.583,-4.67538 320.208,-6.49455"/>
<polygon fill="black" stroke="black" points="320.133,-9.99534 330.302,-7.02209 320.499,-3.00488 320.133,-9.99534"/>
</g>
<!-- ltr558_init_client [gn_liteon_ltr558_auto/gn_ltr558.c:1058]&#45;&gt;APS_ERR [gn_liteon_ltr558_auto/gn_ltr558.c:114] -->
<g id="edge52" class="edge"><title>ltr558_init_client [gn_liteon_ltr558_auto/gn_ltr558.c:1058]&#45;&gt;APS_ERR [gn_liteon_ltr558_auto/gn_ltr558.c:114]</title>
<path fill="none" stroke="black" d="M410.807,-922.094C434.541,-982.344 520.007,-1176.93 662,-1258 834.172,-1356.3 926.709,-1216.38 1106,-1301 1126.46,-1310.66 1121.97,-1326.47 1142,-1337 1163.31,-1348.2 1187.23,-1356.31 1211.2,-1362.17"/>
<polygon fill="black" stroke="black" points="1210.58,-1365.62 1221.11,-1364.47 1212.16,-1358.8 1210.58,-1365.62"/>
</g>
<!-- ltr558_init_client [gn_liteon_ltr558_auto/gn_ltr558.c:1058]&#45;&gt;APS_FUN [gn_liteon_ltr558_auto/gn_ltr558.c:113] -->
<g id="edge54" class="edge"><title>ltr558_init_client [gn_liteon_ltr558_auto/gn_ltr558.c:1058]&#45;&gt;APS_FUN [gn_liteon_ltr558_auto/gn_ltr558.c:113]</title>
<path fill="none" stroke="black" d="M478.426,-887.036C529.767,-875.89 599.723,-861.793 662,-853 711.027,-846.078 1069.24,-848.166 1106,-815 1169.49,-757.723 1079.62,-684.486 1142,-626 1149.19,-619.255 1157.16,-613.601 1165.67,-608.885"/>
<polygon fill="black" stroke="black" points="1167.39,-611.941 1174.73,-604.305 1164.23,-605.695 1167.39,-611.941"/>
</g>
<!-- i2c_get_clientdata -->
<g id="node55" class="node"><title>i2c_get_clientdata</title>
<ellipse fill="lightgrey" stroke="black" cx="1360" cy="-653" rx="75.2868" ry="18"/>
<text text-anchor="middle" x="1360" y="-649.3" font-family="Times,serif" font-size="14.00">i2c_get_clientdata</text>
</g>
<!-- ltr558_init_client [gn_liteon_ltr558_auto/gn_ltr558.c:1058]&#45;&gt;i2c_get_clientdata -->
<g id="edge56" class="edge"><title>ltr558_init_client [gn_liteon_ltr558_auto/gn_ltr558.c:1058]&#45;&gt;i2c_get_clientdata</title>
<path fill="none" stroke="black" d="M598.49,-895.607C799.591,-886.063 1086.99,-869.639 1106,-853 1165.09,-801.269 1084.25,-733.228 1142,-680 1180.36,-644.642 1240.06,-639.463 1287.14,-642.253"/>
<polygon fill="black" stroke="black" points="1287.06,-645.756 1297.29,-642.987 1287.57,-638.774 1287.06,-645.756"/>
</g>
<!-- ltr558_init_device [gn_liteon_ltr558_auto/gn_ltr558.c:592] -->
<g id="node57" class="node"><title>ltr558_init_device [gn_liteon_ltr558_auto/gn_ltr558.c:592]</title>
<ellipse fill="lightgrey" stroke="black" cx="884" cy="-1231" rx="219.861" ry="18"/>
<text text-anchor="middle" x="884" y="-1227.3" font-family="Times,serif" font-size="14.00">ltr558_init_device [gn_liteon_ltr558_auto/gn_ltr558.c:592]</text>
</g>
<!-- ltr558_init_client [gn_liteon_ltr558_auto/gn_ltr558.c:1058]&#45;&gt;ltr558_init_device [gn_liteon_ltr558_auto/gn_ltr558.c:592] -->
<g id="edge58" class="edge"><title>ltr558_init_client [gn_liteon_ltr558_auto/gn_ltr558.c:1058]&#45;&gt;ltr558_init_device [gn_liteon_ltr558_auto/gn_ltr558.c:592]</title>
<path fill="none" stroke="black" d="M430.435,-922.047C511.565,-977.431 757.008,-1144.99 848.303,-1207.31"/>
<polygon fill="black" stroke="black" points="846.414,-1210.26 856.646,-1213.01 850.361,-1204.48 846.414,-1210.26"/>
</g>
<!-- ltr558_setup_eint [gn_liteon_ltr558_auto/gn_ltr558.c:1034] -->
<g id="node59" class="node"><title>ltr558_setup_eint [gn_liteon_ltr558_auto/gn_ltr558.c:1034]</title>
<ellipse fill="lightgrey" stroke="black" cx="884" cy="-923" rx="221.761" ry="18"/>
<text text-anchor="middle" x="884" y="-919.3" font-family="Times,serif" font-size="14.00">ltr558_setup_eint [gn_liteon_ltr558_auto/gn_ltr558.c:1034]</text>
</g>
<!-- ltr558_init_client [gn_liteon_ltr558_auto/gn_ltr558.c:1058]&#45;&gt;ltr558_setup_eint [gn_liteon_ltr558_auto/gn_ltr558.c:1034] -->
<g id="edge60" class="edge"><title>ltr558_init_client [gn_liteon_ltr558_auto/gn_ltr558.c:1058]&#45;&gt;ltr558_setup_eint [gn_liteon_ltr558_auto/gn_ltr558.c:1034]</title>
<path fill="none" stroke="black" d="M601.939,-911.851C625.826,-912.799 650.282,-913.769 674.317,-914.722"/>
<polygon fill="black" stroke="black" points="674.458,-918.231 684.589,-915.13 674.736,-911.236 674.458,-918.231"/>
</g>
<!-- ltr558_init_device [gn_liteon_ltr558_auto/gn_ltr558.c:592]&#45;&gt;ltr558_als_enable [gn_liteon_ltr558_auto/gn_ltr558.c:565] -->
<g id="edge66" class="edge"><title>ltr558_init_device [gn_liteon_ltr558_auto/gn_ltr558.c:592]&#45;&gt;ltr558_als_enable [gn_liteon_ltr558_auto/gn_ltr558.c:565]</title>
<path fill="none" stroke="black" d="M1012.96,-1245.58C1077.38,-1252.92 1155.54,-1261.82 1221.27,-1269.31"/>
<polygon fill="black" stroke="black" points="1220.95,-1272.8 1231.29,-1270.45 1221.75,-1265.84 1220.95,-1272.8"/>
</g>
<!-- ltr558_init_device [gn_liteon_ltr558_auto/gn_ltr558.c:592]&#45;&gt;hwmsen_write_byte -->
<g id="edge64" class="edge"><title>ltr558_init_device [gn_liteon_ltr558_auto/gn_ltr558.c:592]&#45;&gt;hwmsen_write_byte</title>
<path fill="none" stroke="black" d="M1057.43,-1242.09C1074.51,-1247.21 1091.04,-1254.02 1106,-1263 1129.17,-1276.9 1117.89,-1299.8 1142,-1312 1228.45,-1355.76 1481.72,-1322.87 1578,-1312 1596.94,-1309.86 1617.27,-1305.85 1635.63,-1301.56"/>
<polygon fill="black" stroke="black" points="1636.71,-1304.9 1645.61,-1299.16 1635.07,-1298.09 1636.71,-1304.9"/>
</g>
<!-- ltr558_init_device [gn_liteon_ltr558_auto/gn_ltr558.c:592]&#45;&gt;mdelay -->
<g id="edge70" class="edge"><title>ltr558_init_device [gn_liteon_ltr558_auto/gn_ltr558.c:592]&#45;&gt;mdelay</title>
<path fill="none" stroke="black" d="M1001.57,-1215.75C1139.61,-1200.16 1376.25,-1181.21 1578,-1204 1603.9,-1206.92 1632.39,-1213.35 1654.89,-1219.2"/>
<polygon fill="black" stroke="black" points="1654.21,-1222.64 1664.78,-1221.83 1656.02,-1215.88 1654.21,-1222.64"/>
</g>
<!-- ltr558_init_device [gn_liteon_ltr558_auto/gn_ltr558.c:592]&#45;&gt;APS_ERR [gn_liteon_ltr558_auto/gn_ltr558.c:114] -->
<g id="edge62" class="edge"><title>ltr558_init_device [gn_liteon_ltr558_auto/gn_ltr558.c:592]&#45;&gt;APS_ERR [gn_liteon_ltr558_auto/gn_ltr558.c:114]</title>
<path fill="none" stroke="black" d="M1065.97,-1241.16C1080.3,-1246.64 1093.89,-1253.79 1106,-1263 1137.67,-1287.1 1110.36,-1320.86 1142,-1345 1152.96,-1353.36 1165.17,-1360 1178.04,-1365.24"/>
<polygon fill="black" stroke="black" points="1176.93,-1368.56 1187.52,-1368.8 1179.4,-1362.01 1176.93,-1368.56"/>
</g>
<!-- ltr558_ps_enable [gn_liteon_ltr558_auto/gn_ltr558.c:515] -->
<g id="node64" class="node"><title>ltr558_ps_enable [gn_liteon_ltr558_auto/gn_ltr558.c:515]</title>
<ellipse fill="lightgrey" stroke="black" cx="1360" cy="-1231" rx="215.562" ry="18"/>
<text text-anchor="middle" x="1360" y="-1227.3" font-family="Times,serif" font-size="14.00">ltr558_ps_enable [gn_liteon_ltr558_auto/gn_ltr558.c:515]</text>
</g>
<!-- ltr558_init_device [gn_liteon_ltr558_auto/gn_ltr558.c:592]&#45;&gt;ltr558_ps_enable [gn_liteon_ltr558_auto/gn_ltr558.c:515] -->
<g id="edge68" class="edge"><title>ltr558_init_device [gn_liteon_ltr558_auto/gn_ltr558.c:592]&#45;&gt;ltr558_ps_enable [gn_liteon_ltr558_auto/gn_ltr558.c:515]</title>
<path fill="none" stroke="black" d="M1103.96,-1231C1113.97,-1231 1124.02,-1231 1134.04,-1231"/>
<polygon fill="black" stroke="black" points="1134.05,-1234.5 1144.05,-1231 1134.05,-1227.5 1134.05,-1234.5"/>
</g>
<!-- ltr558_setup_eint [gn_liteon_ltr558_auto/gn_ltr558.c:1034]&#45;&gt;APS_FUN [gn_liteon_ltr558_auto/gn_ltr558.c:113] -->
<g id="edge76" class="edge"><title>ltr558_setup_eint [gn_liteon_ltr558_auto/gn_ltr558.c:1034]&#45;&gt;APS_FUN [gn_liteon_ltr558_auto/gn_ltr558.c:113]</title>
<path fill="none" stroke="black" d="M1011.15,-908.176C1046.51,-897.997 1081.85,-881.064 1106,-853 1172.64,-775.578 1068.57,-697.011 1142,-626 1149.04,-619.193 1156.86,-613.484 1165.24,-608.72"/>
<polygon fill="black" stroke="black" points="1166.9,-611.804 1174.16,-604.092 1163.67,-605.59 1166.9,-611.804"/>
</g>
<!-- ltr558_setup_eint [gn_liteon_ltr558_auto/gn_ltr558.c:1034]&#45;&gt;i2c_get_clientdata -->
<g id="edge78" class="edge"><title>ltr558_setup_eint [gn_liteon_ltr558_auto/gn_ltr558.c:1034]&#45;&gt;i2c_get_clientdata</title>
<path fill="none" stroke="black" d="M1073.53,-913.558C1085.42,-907.74 1096.42,-900.338 1106,-891 1174.11,-824.584 1073.23,-745.732 1142,-680 1179.97,-643.71 1240.28,-638.758 1287.69,-641.872"/>
<polygon fill="black" stroke="black" points="1287.66,-645.38 1297.9,-642.678 1288.21,-638.402 1287.66,-645.38"/>
</g>
<!-- mt65xx_eint_registration -->
<g id="node71" class="node"><title>mt65xx_eint_registration</title>
<ellipse fill="lightgrey" stroke="black" cx="1360" cy="-1031" rx="100.182" ry="18"/>
<text text-anchor="middle" x="1360" y="-1027.3" font-family="Times,serif" font-size="14.00">mt65xx_eint_registration</text>
</g>
<!-- ltr558_setup_eint [gn_liteon_ltr558_auto/gn_ltr558.c:1034]&#45;&gt;mt65xx_eint_registration -->
<g id="edge80" class="edge"><title>ltr558_setup_eint [gn_liteon_ltr558_auto/gn_ltr558.c:1034]&#45;&gt;mt65xx_eint_registration</title>
<path fill="none" stroke="black" d="M932.141,-940.705C983.162,-959.191 1067.27,-987.715 1142,-1004 1179.72,-1012.22 1221.71,-1018.17 1258.63,-1022.36"/>
<polygon fill="black" stroke="black" points="1258.58,-1025.87 1268.9,-1023.49 1259.35,-1018.91 1258.58,-1025.87"/>
</g>
<!-- mt65xx_eint_set_hw_debounce -->
<g id="node73" class="node"><title>mt65xx_eint_set_hw_debounce</title>
<ellipse fill="lightgrey" stroke="black" cx="1360" cy="-977" rx="122.678" ry="18"/>
<text text-anchor="middle" x="1360" y="-973.3" font-family="Times,serif" font-size="14.00">mt65xx_eint_set_hw_debounce</text>
</g>
<!-- ltr558_setup_eint [gn_liteon_ltr558_auto/gn_ltr558.c:1034]&#45;&gt;mt65xx_eint_set_hw_debounce -->
<g id="edge82" class="edge"><title>ltr558_setup_eint [gn_liteon_ltr558_auto/gn_ltr558.c:1034]&#45;&gt;mt65xx_eint_set_hw_debounce</title>
<path fill="none" stroke="black" d="M1013.58,-937.649C1088.32,-946.163 1181.39,-956.765 1252.08,-964.819"/>
<polygon fill="black" stroke="black" points="1252.01,-968.334 1262.34,-965.988 1252.8,-961.379 1252.01,-968.334"/>
</g>
<!-- mt65xx_eint_set_polarity -->
<g id="node75" class="node"><title>mt65xx_eint_set_polarity</title>
<ellipse fill="lightgrey" stroke="black" cx="1360" cy="-923" rx="101.282" ry="18"/>
<text text-anchor="middle" x="1360" y="-919.3" font-family="Times,serif" font-size="14.00">mt65xx_eint_set_polarity</text>
</g>
<!-- ltr558_setup_eint [gn_liteon_ltr558_auto/gn_ltr558.c:1034]&#45;&gt;mt65xx_eint_set_polarity -->
<g id="edge84" class="edge"><title>ltr558_setup_eint [gn_liteon_ltr558_auto/gn_ltr558.c:1034]&#45;&gt;mt65xx_eint_set_polarity</title>
<path fill="none" stroke="black" d="M1105.69,-923C1155.23,-923 1205.72,-923 1248.45,-923"/>
<polygon fill="black" stroke="black" points="1248.57,-926.5 1258.57,-923 1248.57,-919.5 1248.57,-926.5"/>
</g>
<!-- mt65xx_eint_set_sens -->
<g id="node77" class="node"><title>mt65xx_eint_set_sens</title>
<ellipse fill="lightgrey" stroke="black" cx="1360" cy="-869" rx="89.0842" ry="18"/>
<text text-anchor="middle" x="1360" y="-865.3" font-family="Times,serif" font-size="14.00">mt65xx_eint_set_sens</text>
</g>
<!-- ltr558_setup_eint [gn_liteon_ltr558_auto/gn_ltr558.c:1034]&#45;&gt;mt65xx_eint_set_sens -->
<g id="edge86" class="edge"><title>ltr558_setup_eint [gn_liteon_ltr558_auto/gn_ltr558.c:1034]&#45;&gt;mt65xx_eint_set_sens</title>
<path fill="none" stroke="black" d="M1013.58,-908.351C1095.54,-899.014 1199.55,-887.166 1271.91,-878.921"/>
<polygon fill="black" stroke="black" points="1272.37,-882.392 1281.91,-877.782 1271.58,-875.437 1272.37,-882.392"/>
</g>
<!-- mt65xx_eint_unmask -->
<g id="node79" class="node"><title>mt65xx_eint_unmask</title>
<ellipse fill="lightgrey" stroke="black" cx="1360" cy="-815" rx="87.9851" ry="18"/>
<text text-anchor="middle" x="1360" y="-811.3" font-family="Times,serif" font-size="14.00">mt65xx_eint_unmask</text>
</g>
<!-- ltr558_setup_eint [gn_liteon_ltr558_auto/gn_ltr558.c:1034]&#45;&gt;mt65xx_eint_unmask -->
<g id="edge88" class="edge"><title>ltr558_setup_eint [gn_liteon_ltr558_auto/gn_ltr558.c:1034]&#45;&gt;mt65xx_eint_unmask</title>
<path fill="none" stroke="black" d="M1058,-911.742C1074.88,-906.635 1091.21,-899.877 1106,-891 1129.17,-877.095 1118.69,-855.672 1142,-842 1178.68,-820.486 1224.8,-812.629 1265.08,-810.597"/>
<polygon fill="black" stroke="black" points="1265.34,-814.09 1275.19,-810.202 1265.06,-807.096 1265.34,-814.09"/>
</g>
<!-- mt_set_gpio_dir -->
<g id="node81" class="node"><title>mt_set_gpio_dir</title>
<ellipse fill="lightgrey" stroke="black" cx="1360" cy="-761" rx="68.7879" ry="18"/>
<text text-anchor="middle" x="1360" y="-757.3" font-family="Times,serif" font-size="14.00">mt_set_gpio_dir</text>
</g>
<!-- ltr558_setup_eint [gn_liteon_ltr558_auto/gn_ltr558.c:1034]&#45;&gt;mt_set_gpio_dir -->
<g id="edge90" class="edge"><title>ltr558_setup_eint [gn_liteon_ltr558_auto/gn_ltr558.c:1034]&#45;&gt;mt_set_gpio_dir</title>
<path fill="none" stroke="black" d="M1068.91,-912.951C1082.27,-907.371 1094.85,-900.183 1106,-891 1143.43,-860.163 1104.27,-818.461 1142,-788 1182.73,-755.119 1242.54,-749.825 1289.05,-751.94"/>
<polygon fill="black" stroke="black" points="1288.88,-755.436 1299.07,-752.517 1289.28,-748.447 1288.88,-755.436"/>
</g>
<!-- mt_set_gpio_mode -->
<g id="node83" class="node"><title>mt_set_gpio_mode</title>
<ellipse fill="lightgrey" stroke="black" cx="1360" cy="-707" rx="79.0865" ry="18"/>
<text text-anchor="middle" x="1360" y="-703.3" font-family="Times,serif" font-size="14.00">mt_set_gpio_mode</text>
</g>
<!-- ltr558_setup_eint [gn_liteon_ltr558_auto/gn_ltr558.c:1034]&#45;&gt;mt_set_gpio_mode -->
<g id="edge92" class="edge"><title>ltr558_setup_eint [gn_liteon_ltr558_auto/gn_ltr558.c:1034]&#45;&gt;mt_set_gpio_mode</title>
<path fill="none" stroke="black" d="M1071.9,-913.433C1084.32,-907.682 1095.88,-900.327 1106,-891 1158.64,-842.486 1088.87,-781.985 1142,-734 1179.8,-699.862 1237.57,-694.089 1284.01,-696.327"/>
<polygon fill="black" stroke="black" points="1283.84,-699.823 1294.03,-696.941 1284.27,-692.836 1283.84,-699.823"/>
</g>
<!-- mt_set_gpio_pull_enable -->
<g id="node85" class="node"><title>mt_set_gpio_pull_enable</title>
<ellipse fill="lightgrey" stroke="black" cx="1360" cy="-1139" rx="100.182" ry="18"/>
<text text-anchor="middle" x="1360" y="-1135.3" font-family="Times,serif" font-size="14.00">mt_set_gpio_pull_enable</text>
</g>
<!-- ltr558_setup_eint [gn_liteon_ltr558_auto/gn_ltr558.c:1034]&#45;&gt;mt_set_gpio_pull_enable -->
<g id="edge94" class="edge"><title>ltr558_setup_eint [gn_liteon_ltr558_auto/gn_ltr558.c:1034]&#45;&gt;mt_set_gpio_pull_enable</title>
<path fill="none" stroke="black" d="M902.614,-941.166C941.601,-980.098 1039.86,-1071.33 1142,-1112 1175.71,-1125.42 1214.49,-1132.59 1249.86,-1136.29"/>
<polygon fill="black" stroke="black" points="1249.94,-1139.82 1260.23,-1137.29 1250.61,-1132.85 1249.94,-1139.82"/>
</g>
<!-- mt_set_gpio_pull_select -->
<g id="node87" class="node"><title>mt_set_gpio_pull_select</title>
<ellipse fill="lightgrey" stroke="black" cx="1360" cy="-1085" rx="96.6831" ry="18"/>
<text text-anchor="middle" x="1360" y="-1081.3" font-family="Times,serif" font-size="14.00">mt_set_gpio_pull_select</text>
</g>
<!-- ltr558_setup_eint [gn_liteon_ltr558_auto/gn_ltr558.c:1034]&#45;&gt;mt_set_gpio_pull_select -->
<g id="edge96" class="edge"><title>ltr558_setup_eint [gn_liteon_ltr558_auto/gn_ltr558.c:1034]&#45;&gt;mt_set_gpio_pull_select</title>
<path fill="none" stroke="black" d="M911.346,-940.992C956.389,-970.771 1052.07,-1029.81 1142,-1058 1178.18,-1069.34 1219.15,-1075.94 1255.67,-1079.77"/>
<polygon fill="black" stroke="black" points="1255.55,-1083.28 1265.85,-1080.78 1256.24,-1076.31 1255.55,-1083.28"/>
</g>
<!-- ltr558_ps_enable [gn_liteon_ltr558_auto/gn_ltr558.c:515]&#45;&gt;hwmsen_write_byte -->
<g id="edge72" class="edge"><title>ltr558_ps_enable [gn_liteon_ltr558_auto/gn_ltr558.c:515]&#45;&gt;hwmsen_write_byte</title>
<path fill="none" stroke="black" d="M1492.71,-1245.22C1520.93,-1248.87 1550.52,-1253.16 1578,-1258 1595.65,-1261.11 1614.63,-1265.14 1632.1,-1269.14"/>
<polygon fill="black" stroke="black" points="1631.66,-1272.63 1642.19,-1271.48 1633.24,-1265.81 1631.66,-1272.63"/>
</g>
<!-- ltr558_ps_enable [gn_liteon_ltr558_auto/gn_ltr558.c:515]&#45;&gt;mdelay -->
<g id="edge74" class="edge"><title>ltr558_ps_enable [gn_liteon_ltr558_auto/gn_ltr558.c:515]&#45;&gt;mdelay</title>
<path fill="none" stroke="black" d="M1576,-1231C1603.56,-1231 1629.25,-1231 1649.73,-1231"/>
<polygon fill="black" stroke="black" points="1649.95,-1234.5 1659.95,-1231 1649.95,-1227.5 1649.95,-1234.5"/>
</g>
</g>
</svg>
